<svg width="184" height="133" viewBox="0 0 184 133" fill="none" xmlns="http://www.w3.org/2000/svg">
<path d="M7.97414 67.0581C9.96702 63.0353 11.0942 59.5315 10.4917 59.2321C9.8892 58.9327 7.78525 61.9511 5.79238 65.9739C3.7995 69.9966 2.67237 73.5004 3.27484 73.7998C3.87732 74.0992 5.98127 71.0808 7.97414 67.0581Z" fill="#E0E0E0"/>
<path d="M109.068 117.344C111.061 113.321 112.345 109.895 111.935 109.692C111.526 109.488 109.578 112.584 107.586 116.607C105.593 120.63 104.309 124.056 104.718 124.259C105.128 124.463 107.075 121.367 109.068 117.344Z" fill="#E0E0E0"/>
<path d="M54.743 97.0073L50.9869 93.901L40.6485 106.441L44.4046 109.547L54.743 97.0073Z" fill="#D62868"/>
<path opacity="0.05" d="M46.1054 110.548L51.4407 111.804L55.157 95.9733L49.8217 94.7169L46.1054 110.548Z" fill="black"/>
<path d="M46.6989 110.687L51.4407 111.804L55.157 95.9733L50.4152 94.8567L46.6989 110.687Z" fill="#D62868"/>
<path d="M10.6721 58.8679L3.09442 74.164L104.546 124.58L112.124 109.284L10.6721 58.8679Z" fill="url(#paint0_linear)"/>
<path d="M104.727 124.216C102.741 123.262 1.82032 73.077 3.27483 73.7999C8.87624 65.2371 10.4917 59.2321 10.4917 59.2321L111.944 109.648C111.944 109.648 108.381 115.91 104.727 124.216Z" fill="#F5F5F5"/>
<path opacity="0.05" d="M63.2176 85.4339L54.8542 81.2777L47.6374 95.8455L56.0008 100.002L63.2176 85.4339Z" fill="black"/>
<path d="M62.854 85.2532L55.2178 81.4584L48.001 96.0262L55.6372 99.8209L62.854 85.2532Z" fill="#D62868"/>
<path opacity="0.05" d="M61.3995 84.5303L56.3087 82.0005L49.0919 96.5683L54.1827 99.0981L61.3995 84.5303Z" fill="black"/>
<path d="M61.0359 84.3496L56.6723 82.1812L49.4555 96.749L53.819 98.9174L61.0359 84.3496Z" fill="#D62868"/>
<path d="M60.4483 131.335C60.8221 131.335 61.1251 131.031 61.1251 130.657C61.1251 130.283 60.8221 129.979 60.4483 129.979C60.0745 129.979 59.7715 130.283 59.7715 130.657C59.7715 131.031 60.0745 131.335 60.4483 131.335Z" fill="#DBDBDB"/>
<g opacity="0.5">
<path opacity="0.5" d="M7.49383 111.676H6.79984V115.614H7.49383V111.676Z" fill="#47E6B1"/>
<path opacity="0.5" d="M9.11315 113.992V113.297H5.18051V113.992H9.11315Z" fill="#47E6B1"/>
</g>
<g opacity="0.5">
<path opacity="0.5" d="M182.381 62.5568H181.687V66.4956H182.381V62.5568Z" fill="#47E6B1"/>
<path opacity="0.5" d="M184 64.8737V64.1787H180.067V64.8737H184Z" fill="#47E6B1"/>
</g>
<g opacity="0.5">
<path opacity="0.5" d="M11.6578 13.6698H10.9638V17.6086H11.6578V13.6698Z" fill="#47E6B1"/>
<path opacity="0.5" d="M13.2771 15.9867V15.2917H9.34449V15.9867H13.2771Z" fill="#47E6B1"/>
</g>
<g opacity="0.5">
<path opacity="0.5" d="M161.561 7.64583H160.867V11.5846H161.561V7.64583Z" fill="#47E6B1"/>
<path opacity="0.5" d="M163.18 9.96273V9.26765H159.247V9.96273H163.18Z" fill="#47E6B1"/>
</g>
<path opacity="0.5" d="M2.843 58.7238C2.65175 58.6404 2.4978 58.4894 2.41046 58.2997C2.32312 58.11 2.30849 57.8947 2.36935 57.6949C2.3792 57.6642 2.3854 57.6325 2.38783 57.6004C2.3934 57.5089 2.36937 57.418 2.31931 57.3411C2.26925 57.2643 2.19582 57.2057 2.10989 57.174C2.02397 57.1422 1.93012 57.139 1.84225 57.1649C1.75438 57.1907 1.67716 57.2442 1.62202 57.3175C1.60306 57.3435 1.58723 57.3716 1.57485 57.4013C1.49156 57.5929 1.34085 57.7471 1.15141 57.8345C0.961974 57.922 0.747036 57.9367 0.547509 57.8757C0.51692 57.8658 0.485274 57.8596 0.45323 57.8572C0.361816 57.8516 0.27104 57.8757 0.194348 57.9258C0.117657 57.976 0.0591289 58.0495 0.0274324 58.1356C-0.00426404 58.2216 -0.00744198 58.3156 0.0183678 58.4036C0.0441776 58.4916 0.0976015 58.569 0.17073 58.6242C0.196676 58.6432 0.22477 58.659 0.254426 58.6714C0.445676 58.7549 0.599624 58.9058 0.686962 59.0955C0.774301 59.2853 0.788932 59.5005 0.728074 59.7004C0.718226 59.731 0.712021 59.7627 0.709589 59.7948C0.704024 59.8864 0.728054 59.9773 0.778114 60.0541C0.828174 60.1309 0.901604 60.1895 0.987529 60.2213C1.07345 60.253 1.1673 60.2562 1.25518 60.2303C1.34305 60.2045 1.42027 60.151 1.4754 60.0777C1.49436 60.0517 1.5102 60.0236 1.52257 59.9939C1.60586 59.8024 1.75657 59.6482 1.94601 59.5607C2.13545 59.4732 2.35039 59.4586 2.54991 59.5195C2.5805 59.5294 2.61215 59.5356 2.64419 59.538C2.73561 59.5436 2.82639 59.5195 2.90308 59.4694C2.97977 59.4193 3.0383 59.3457 3.07 59.2597C3.10169 59.1736 3.10487 59.0796 3.07906 58.9916C3.05325 58.9036 2.99982 58.8263 2.92669 58.771C2.90075 58.752 2.87265 58.7362 2.843 58.7238Z" fill="#4D8AF0"/>
<path opacity="0.5" d="M42.6321 13.0805C42.4408 12.9971 42.2869 12.8461 42.1995 12.6564C42.1122 12.4666 42.0976 12.2514 42.1584 12.0515C42.1683 12.0209 42.1745 11.9892 42.1769 11.9571C42.1825 11.8656 42.1584 11.7746 42.1084 11.6978C42.0583 11.621 41.9849 11.5624 41.899 11.5306C41.813 11.4989 41.7192 11.4957 41.6313 11.5216C41.5434 11.5474 41.4662 11.6009 41.4111 11.6742C41.3921 11.7002 41.3763 11.7283 41.3639 11.758C41.2806 11.9495 41.1299 12.1037 40.9405 12.1912C40.751 12.2787 40.5361 12.2933 40.3366 12.2324C40.306 12.2225 40.2743 12.2163 40.2423 12.2139C40.1509 12.2083 40.0601 12.2324 39.9834 12.2825C39.9067 12.3326 39.8482 12.4062 39.8165 12.4922C39.7848 12.5783 39.7816 12.6723 39.8074 12.7603C39.8332 12.8483 39.8867 12.9257 39.9598 12.9809C39.9857 12.9999 40.0138 13.0157 40.0435 13.0281C40.2347 13.1115 40.3887 13.2625 40.476 13.4522C40.5634 13.6419 40.578 13.8572 40.5171 14.0571C40.5073 14.0877 40.5011 14.1194 40.4987 14.1515C40.4931 14.243 40.5171 14.334 40.5672 14.4108C40.6172 14.4876 40.6907 14.5462 40.7766 14.5779C40.8625 14.6097 40.9564 14.6129 41.0442 14.587C41.1321 14.5612 41.2093 14.5077 41.2645 14.4344C41.2834 14.4084 41.2993 14.3803 41.3116 14.3506C41.3949 14.159 41.5456 14.0049 41.7351 13.9174C41.9245 13.8299 42.1395 13.8153 42.339 13.8762C42.3696 13.8861 42.4012 13.8923 42.4333 13.8947C42.5247 13.9003 42.6154 13.8762 42.6921 13.8261C42.7688 13.776 42.8274 13.7024 42.8591 13.6164C42.8908 13.5303 42.8939 13.4363 42.8681 13.3483C42.8423 13.2603 42.7889 13.1829 42.7158 13.1277C42.6898 13.1087 42.6617 13.0929 42.6321 13.0805Z" fill="#4D8AF0"/>
<path opacity="0.5" d="M91.2118 131.475C91.0205 131.392 90.8666 131.241 90.7792 131.051C90.6919 130.861 90.6772 130.646 90.7381 130.446C90.748 130.415 90.7542 130.384 90.7566 130.352C90.7622 130.26 90.7381 130.169 90.6881 130.092C90.638 130.016 90.5646 129.957 90.4786 129.925C90.3927 129.893 90.2989 129.89 90.211 129.916C90.1231 129.942 90.0459 129.996 89.9908 130.069C89.9718 130.095 89.956 130.123 89.9436 130.153C89.8603 130.344 89.7096 130.498 89.5202 130.586C89.3307 130.673 89.1158 130.688 88.9163 130.627C88.8857 130.617 88.854 130.611 88.822 130.608C88.7306 130.603 88.6398 130.627 88.5631 130.677C88.4864 130.727 88.4279 130.801 88.3962 130.887C88.3645 130.973 88.3613 131.067 88.3871 131.155C88.4129 131.243 88.4663 131.32 88.5395 131.375C88.5654 131.394 88.5935 131.41 88.6232 131.423C88.8144 131.506 88.9684 131.657 89.0557 131.847C89.143 132.037 89.1577 132.252 89.0968 132.452C89.087 132.482 89.0808 132.514 89.0783 132.546C89.0728 132.638 89.0968 132.729 89.1469 132.805C89.1969 132.882 89.2704 132.941 89.3563 132.973C89.4422 133.004 89.5361 133.007 89.6239 132.982C89.7118 132.956 89.789 132.902 89.8441 132.829C89.8631 132.803 89.8789 132.775 89.8913 132.745C89.9746 132.554 90.1253 132.399 90.3148 132.312C90.5042 132.224 90.7191 132.21 90.9187 132.271C90.9493 132.281 90.9809 132.287 91.013 132.289C91.1044 132.295 91.1951 132.271 91.2718 132.221C91.3485 132.171 91.4071 132.097 91.4388 132.011C91.4705 131.925 91.4736 131.831 91.4478 131.743C91.422 131.655 91.3686 131.578 91.2955 131.522C91.2695 131.503 91.2414 131.487 91.2118 131.475Z" fill="#4D8AF0"/>
<path opacity="0.5" d="M175.672 104.261C176.439 104.261 177.06 103.639 177.06 102.871C177.06 102.103 176.439 101.481 175.672 101.481C174.905 101.481 174.284 102.103 174.284 102.871C174.284 103.639 174.905 104.261 175.672 104.261Z" fill="#F55F44"/>
<path opacity="0.5" d="M145.136 113.066C145.903 113.066 146.524 112.443 146.524 111.676C146.524 110.908 145.903 110.285 145.136 110.285C144.37 110.285 143.748 110.908 143.748 111.676C143.748 112.443 144.37 113.066 145.136 113.066Z" fill="#4D8AF0"/>
<path opacity="0.5" d="M23.9184 126.736C24.685 126.736 25.3064 126.113 25.3064 125.345C25.3064 124.578 24.685 123.955 23.9184 123.955C23.1518 123.955 22.5304 124.578 22.5304 125.345C22.5304 126.113 23.1518 126.736 23.9184 126.736Z" fill="#47E6B1"/>
<path opacity="0.5" d="M95.1686 2.7803C95.9352 2.7803 96.5566 2.15791 96.5566 1.39015C96.5566 0.622392 95.9352 0 95.1686 0C94.402 0 93.7806 0.622392 93.7806 1.39015C93.7806 2.15791 94.402 2.7803 95.1686 2.7803Z" fill="#F55F44"/>
<path d="M47.3986 82.8299L41.8466 91.1708C41.8466 91.1708 43.6973 99.7434 84.643 99.5117C125.589 99.28 128.827 91.1708 128.827 91.1708L121.193 80.0496L97.8289 64.0628L47.3986 82.8299Z" fill="#6C63FF"/>
<path opacity="0.15" d="M47.3986 82.8299L41.8466 91.1708C41.8466 91.1708 43.6973 99.7434 84.643 99.5117C125.589 99.28 128.827 91.1708 128.827 91.1708L121.193 80.0496L97.8289 64.0628L47.3986 82.8299Z" fill="black"/>
<path d="M165.493 51.899L92.6239 84.1042L3.79245 51.899L85.2212 14.8283L125.193 33.2872L126.625 33.9498L165.493 51.899Z" fill="#6C63FF"/>
<path opacity="0.15" d="M165.493 51.899L92.6239 84.1042L3.79245 51.899L85.2212 14.8283L125.193 33.2872L126.625 33.9498L165.493 51.899Z" fill="black"/>
<path d="M128.133 59.619L126.745 59.7024L125.193 33.2872L126.625 33.9498L128.133 59.619Z" fill="#F5F5F5"/>
<path d="M48.3239 51.7832L41.8466 91.1708C41.8466 91.1708 88.3443 76.1108 128.827 91.1708L122.813 49.4662C122.813 49.4662 68.4498 42.7472 48.3239 51.7832Z" fill="#6C63FF"/>
<path d="M128.018 67.6541C131.723 67.6541 134.726 65.5794 134.726 63.0202C134.726 60.461 131.723 58.3864 128.018 58.3864C124.313 58.3864 121.309 60.461 121.309 63.0202C121.309 65.5794 124.313 67.6541 128.018 67.6541Z" fill="#F5F5F5"/>
<defs>
<linearGradient id="paint0_linear" x1="53.8204" y1="99.3719" x2="61.417" y2="84.0852" gradientUnits="userSpaceOnUse">
<stop stop-color="#808080" stop-opacity="0.25"/>
<stop offset="0.53514" stop-color="#808080" stop-opacity="0.12"/>
<stop offset="1" stop-color="#808080" stop-opacity="0.1"/>
</linearGradient>
</defs>
</svg>
