<svg width="546" height="117" viewBox="0 0 546 117" fill="none" xmlns="http://www.w3.org/2000/svg">
<g clip-path="url(#clip0)">
<path d="M546 105.3L523.25 95.5378C500.5 85.9219 455 66.1781 409.5 56.5622C364 46.8 318.5 46.8 273 56.5622C227.5 66.1781 182 85.9219 136.5 95.5378C91 105.3 45.5 105.3 22.75 105.3H0V-1.52588e-05H22.75C45.5 -1.52588e-05 91 -1.52588e-05 136.5 -1.52588e-05C182 -1.52588e-05 227.5 -1.52588e-05 273 -1.52588e-05C318.5 -1.52588e-05 364 -1.52588e-05 409.5 -1.52588e-05C455 -1.52588e-05 500.5 -1.52588e-05 523.25 -1.52588e-05H546V105.3Z" fill="#5C54D9"/>
</g>
<defs>
<clipPath id="clip0">
<rect width="546" height="117" fill="white" transform="translate(546 117) rotate(-180)"/>
</clipPath>
</defs>
</svg>
